<?xml version="1.0" standalone="no"?>
<!DOCTYPE svg PUBLIC "-//W3C//DTD SVG 20010904//EN"
 "http://www.w3.org/TR/2001/REC-SVG-20010904/DTD/svg10.dtd">
<svg version="1.0" xmlns="http://www.w3.org/2000/svg"
 width="2048.000000pt" height="2048.000000pt" viewBox="0 0 2048.000000 2048.000000"
 preserveAspectRatio="xMidYMid meet">

<g transform="translate(0.000000,2048.000000) scale(0.100000,-0.100000)"
fill="#000000" stroke="none">
<path d="M9522 11483 c-2 -42 -2 -42 -44 -46 l-43 -4 43 -1 c48 -2 56 7 49 60
-3 30 -4 29 -5 -9z"/>
<path d="M9593 11480 c0 -25 2 -35 4 -22 2 12 2 32 0 45 -2 12 -4 2 -4 -23z"/>
<path d="M9840 11450 c0 -6 47 -10 120 -10 73 0 120 4 120 10 0 6 -47 10 -120
10 -73 0 -120 -4 -120 -10z"/>
<path d="M9360 11370 c0 -6 33 -9 83 -9 77 2 79 2 32 9 -72 12 -115 11 -115 0z"/>
<path d="M9560 11280 c0 -47 -4 -80 -10 -80 -5 0 -10 -18 -10 -40 0 -22 -4
-40 -10 -40 -5 0 -10 18 -10 40 l0 40 -80 0 -80 0 0 -40 0 -40 -80 0 -80 0 0
-40 0 -40 -40 0 -40 0 0 -40 0 -40 -40 0 -40 0 0 -40 0 -40 -40 0 -40 0 0 -40
0 -40 -40 0 -40 0 0 -80 0 -80 -40 0 -40 0 0 -80 0 -80 -40 0 -40 0 0 -120 0
-120 -40 0 -40 0 0 -240 c0 -153 -4 -240 -10 -240 -5 0 -10 -10 -10 -22 0 -19
2 -20 10 -8 7 11 10 7 10 -17 0 -32 2 -33 40 -33 l40 0 0 -120 0 -120 40 0 40
0 0 -40 0 -40 40 0 c38 0 40 -2 40 -30 0 -28 2 -30 40 -30 22 0 40 -4 40 -10
0 -5 -18 -10 -40 -10 l-40 0 0 -40 0 -40 40 0 40 0 0 -160 c0 -88 4 -160 8
-160 9 0 22 189 22 322 0 63 3 78 15 78 13 0 15 -20 15 -120 0 -73 4 -120 10
-120 7 0 10 231 11 673 0 369 3 667 5 660 4 -9 88 -12 332 -13 246 0 328 -3
334 -13 4 -6 8 -83 8 -169 0 -87 3 -158 8 -158 4 0 22 23 41 50 29 43 59 75
163 173 33 31 191 117 248 134 30 10 57 20 60 23 9 11 111 30 160 30 27 0 52
5 55 10 3 6 16 8 28 5 12 -3 75 -7 139 -9 64 -2 122 -7 128 -11 6 -4 28 -7 48
-7 20 0 44 -6 53 -14 9 -8 20 -14 25 -13 10 2 35 -6 72 -24 16 -8 25 -8 34 1
15 15 38 16 38 2 0 -5 -7 -10 -16 -10 -8 0 -12 -5 -8 -11 3 -6 15 -8 26 -6 14
4 18 2 14 -9 -5 -13 -1 -15 37 -18 6 -1 18 -9 25 -18 7 -9 19 -15 28 -11 9 3
14 0 12 -7 -4 -15 28 -37 38 -27 4 4 -1 13 -11 21 -11 8 -14 15 -8 19 6 4 18
-4 27 -18 15 -22 15 -26 2 -31 -13 -5 -13 -8 -1 -20 7 -8 17 -14 22 -14 5 0
17 -14 27 -31 10 -18 24 -28 31 -25 10 3 12 -1 9 -12 -5 -13 -4 -14 4 -3 6 8
17 11 28 7 13 -4 12 0 -5 13 -14 10 -32 17 -40 14 -13 -4 -12 -2 2 10 25 21
21 35 -8 29 -15 -2 -25 0 -25 7 0 6 11 11 25 11 25 0 25 1 25 85 l0 85 -40 0
-40 0 0 80 0 80 -40 0 -40 0 0 80 0 80 -40 0 -40 0 0 40 0 40 -40 0 -40 0 0
40 0 40 -40 0 -40 0 0 80 0 80 80 0 80 0 1 -82 2 -83 10 77 c11 90 2 108 -57
108 -20 0 -36 5 -36 10 0 6 -18 10 -40 10 -33 0 -40 -3 -40 -20 0 -18 -7 -20
-80 -20 l-80 0 0 50 0 50 -40 0 c-22 0 -40 5 -40 10 0 6 -18 10 -40 10 -22 0
-40 5 -40 10 0 6 -18 10 -40 10 -22 0 -40 5 -40 10 0 6 -33 10 -80 10 l-80 0
0 40 0 40 -40 0 c-22 0 -40 -4 -40 -10 0 -6 -60 -10 -160 -10 -100 0 -160 4
-160 10 0 6 18 10 40 10 22 0 40 5 40 10 0 6 -18 10 -40 10 -22 0 -40 5 -40
10 0 6 -33 10 -80 10 -73 0 -80 -2 -80 -20 0 -18 -7 -20 -80 -20 l-80 0 0 40
c0 33 -3 40 -20 40 -18 0 -20 -7 -20 -80z m1480 -760 c0 -22 -4 -40 -10 -40
-5 0 -10 18 -10 40 0 22 5 40 10 40 6 0 10 -18 10 -40z m135 -128 c19 -7 36
-62 18 -62 -32 1 -54 14 -50 31 3 12 0 19 -9 19 -8 0 -14 5 -14 10 0 11 24 12
55 2z m-47 -86 c-7 -8 -15 -12 -17 -11 -5 6 10 25 20 25 5 0 4 -6 -3 -14z m72
4 c0 -5 -2 -10 -4 -10 -3 0 -8 5 -11 10 -3 6 -1 10 4 10 6 0 11 -4 11 -10z"/>
<path d="M9920 11350 c0 -5 18 -10 40 -10 22 0 40 5 40 10 0 6 -18 10 -40 10
-22 0 -40 -4 -40 -10z"/>
<path d="M10640 11190 c0 -5 18 -10 40 -10 22 0 40 5 40 10 0 6 -18 10 -40 10
-22 0 -40 -4 -40 -10z"/>
<path d="M11113 10920 c0 -25 2 -35 4 -22 2 12 2 32 0 45 -2 12 -4 2 -4 -23z"/>
<path d="M8030 10299 c0 -5 5 -7 10 -4 6 3 10 8 10 11 0 2 -4 4 -10 4 -5 0
-10 -5 -10 -11z"/>
<path d="M8130 10230 c0 -5 5 -10 10 -10 6 0 10 5 10 10 0 6 -4 10 -10 10 -5
0 -10 -4 -10 -10z"/>
<path d="M8210 10222 c0 -12 19 -26 26 -19 2 2 -2 10 -11 17 -9 8 -15 8 -15 2z"/>
<path d="M11342 10185 c-1 -19 3 -37 8 -40 6 -4 10 11 10 34 0 50 -16 55 -18
6z"/>
<path d="M8220 10155 c-11 -13 -10 -14 5 -8 15 5 17 3 11 -13 -5 -14 -4 -16 4
-7 8 7 9 17 3 28 -9 15 -11 15 -23 0z"/>
<path d="M8265 10140 c3 -5 10 -10 16 -10 5 0 9 5 9 10 0 6 -7 10 -16 10 -8 0
-12 -4 -9 -10z"/>
<path d="M11330 10130 c0 -8 5 -22 10 -30 9 -13 10 -13 10 0 0 8 -5 22 -10 30
-9 13 -10 13 -10 0z"/>
<path d="M11290 10122 c0 -5 7 -17 16 -28 14 -17 15 -17 10 -1 -3 10 -6 23 -6
28 0 5 -4 9 -10 9 -5 0 -10 -4 -10 -8z"/>
<path d="M8290 10071 c0 -5 5 -13 10 -16 6 -3 10 -2 10 4 0 5 -4 13 -10 16 -5
3 -10 2 -10 -4z"/>
<path d="M8338 10073 c7 -3 16 -2 19 1 4 3 -2 6 -13 5 -11 0 -14 -3 -6 -6z"/>
<path d="M11325 10071 c-2 -5 4 -11 15 -14 11 -3 20 -2 20 3 0 12 -28 21 -35
11z"/>
<path d="M8320 10042 c0 -4 9 -13 20 -20 11 -7 20 -9 20 -4 0 4 -9 13 -20 20
-11 7 -20 9 -20 4z"/>
<path d="M8370 10039 c0 -5 5 -7 10 -4 6 3 10 8 10 11 0 2 -4 4 -10 4 -5 0
-10 -5 -10 -11z"/>
<path d="M11413 10023 c-15 -5 -17 -43 -3 -43 6 0 10 6 10 13 0 8 4 7 10 -3 9
-13 10 -13 10 0 0 22 -13 38 -27 33z"/>
<path d="M8382 10005 c-9 -11 -9 -15 -1 -15 6 0 9 -9 6 -20 -3 -11 -1 -18 3
-15 6 4 12 67 6 65 -1 -1 -7 -7 -14 -15z"/>
<path d="M11382 9969 c6 -16 12 -29 13 -27 6 6 -8 58 -16 58 -4 0 -3 -14 3
-31z"/>
<path d="M11415 9960 c-4 -6 -3 -16 3 -22 13 -13 23 4 13 21 -7 10 -10 10 -16
1z"/>
<path d="M8415 9910 c4 -6 11 -8 16 -5 14 9 11 15 -7 15 -8 0 -12 -5 -9 -10z"/>
<path d="M11410 9909 c0 -5 5 -7 10 -4 6 3 10 8 10 11 0 2 -4 4 -10 4 -5 0
-10 -5 -10 -11z"/>
<path d="M8450 9890 c0 -5 5 -10 10 -10 6 0 10 5 10 10 0 6 -4 10 -10 10 -5 0
-10 -4 -10 -10z"/>
<path d="M11431 9874 c0 -11 3 -14 6 -6 3 7 2 16 -1 19 -3 4 -6 -2 -5 -13z"/>
<path d="M8468 9851 c-5 -16 -1 -30 13 -45 11 -11 18 -28 16 -38 -3 -11 0 -15
10 -11 12 5 14 1 9 -15 -4 -11 -2 -23 4 -27 5 -3 11 -18 11 -33 1 -17 3 -21 6
-9 4 17 -9 94 -22 130 -5 12 -2 17 9 17 16 0 25 -27 23 -70 -2 -51 5 -125 10
-110 4 8 13 20 21 26 15 11 13 52 -2 46 -16 -7 -25 23 -19 60 4 26 1 42 -10
53 -18 17 -37 20 -37 5 0 -24 -29 -8 -32 18 -3 26 -3 27 -10 3z"/>
<path d="M11951 9854 c0 -11 3 -14 6 -6 3 7 2 16 -1 19 -3 4 -6 -2 -5 -13z"/>
<path d="M11926 9835 c8 -37 14 -45 14 -19 0 10 -5 26 -10 34 -8 11 -9 7 -4
-15z"/>
<path d="M11441 9820 c-1 -15 7 -30 19 -38 16 -10 20 -10 20 0 1 8 6 6 14 -4
21 -28 28 -21 10 8 -10 14 -20 21 -23 15 -9 -14 -28 0 -34 24 -4 17 -5 16 -6
-5z"/>
<path d="M11465 9830 c3 -5 10 -10 16 -10 5 0 9 5 9 10 0 6 -7 10 -16 10 -8 0
-12 -4 -9 -10z"/>
<path d="M11511 9824 c0 -11 3 -14 6 -6 3 7 2 16 -1 19 -3 4 -6 -2 -5 -13z"/>
<path d="M10270 9770 c-8 -5 -29 -10 -47 -10 -17 0 -35 -5 -38 -11 -4 -5 -12
-8 -18 -6 -36 12 -204 -107 -200 -142 1 -9 0 -11 -3 -3 -3 6 -10 12 -15 12 -5
0 -9 -6 -10 -12 0 -7 -16 -33 -35 -58 -19 -25 -37 -53 -40 -62 -4 -10 -10 -18
-15 -18 -5 0 -9 -8 -9 -17 0 -10 -7 -31 -15 -47 -9 -16 -13 -31 -10 -34 3 -3
-2 -16 -11 -29 -8 -13 -13 -30 -11 -36 2 -7 0 -21 -6 -32 -15 -28 -18 -87 -23
-372 l-5 -253 241 0 240 0 0 40 0 40 120 0 c113 0 120 1 120 20 0 17 7 20 40
20 33 0 40 3 40 20 0 18 7 20 60 20 l60 0 0 40 c0 22 5 40 10 40 6 0 10 18 10
40 0 30 4 40 16 40 14 0 15 -11 12 -77 -3 -43 -3 -61 -1 -40 2 20 9 37 15 37
7 0 8 -26 3 -80 -5 -56 -4 -80 4 -80 7 0 11 -29 11 -82 0 -45 2 -79 4 -77 7 7
20 542 17 704 -2 159 -14 223 -56 305 -33 64 -90 124 -110 116 -9 -3 -13 -2
-10 4 5 7 -27 32 -45 35 -3 0 -16 7 -29 14 -13 7 -50 16 -83 18 -32 3 -61 10
-64 14 -7 12 -95 11 -114 -1z m415 -160 c3 -5 1 -10 -4 -10 -6 0 -11 5 -11 10
0 6 2 10 4 10 3 0 8 -4 11 -10z m42 -182 c-3 -8 -6 -5 -6 6 -1 11 2 17 5 13 3
-3 4 -12 1 -19z m30 -30 c-3 -7 -5 -2 -5 12 0 14 2 19 5 13 2 -7 2 -19 0 -25z
m-920 -220 c-3 -8 -6 -5 -6 6 -1 11 2 17 5 13 3 -3 4 -12 1 -19z"/>
<path d="M11465 9750 c3 -5 10 -10 16 -10 5 0 9 5 9 10 0 6 -7 10 -16 10 -8 0
-12 -4 -9 -10z"/>
<path d="M11489 9720 c-9 -21 1 -120 12 -120 11 0 24 49 15 57 -3 4 -7 -5 -8
-18 -1 -13 -4 3 -7 36 -3 33 -9 53 -12 45z"/>
<path d="M8590 9594 c0 -6 11 -32 24 -59 l25 -47 -2 58 c-1 33 -3 51 -5 42 -2
-10 -6 -18 -9 -18 -3 0 -12 8 -19 18 -7 9 -14 12 -14 6z"/>
<path d="M8561 9574 c0 -11 3 -14 6 -6 3 7 2 16 -1 19 -3 4 -6 -2 -5 -13z"/>
<path d="M7885 9490 c3 -5 8 -10 11 -10 2 0 4 5 4 10 0 6 -5 10 -11 10 -5 0
-7 -4 -4 -10z"/>
<path d="M11512 9470 c0 -19 2 -27 5 -17 2 9 2 25 0 35 -3 9 -5 1 -5 -18z"/>
<path d="M8607 9484 c-4 -4 -7 -17 -7 -28 1 -19 1 -20 11 -3 11 19 8 43 -4 31z"/>
<path d="M8626 9445 c-9 -26 -7 -32 5 -12 6 10 9 21 6 23 -2 3 -7 -2 -11 -11z"/>
<path d="M8622 9385 c0 -16 2 -22 5 -12 2 9 2 23 0 30 -3 6 -5 -1 -5 -18z"/>
<path d="M8620 9319 c0 -19 5 -41 10 -49 7 -10 8 -1 4 30 -8 56 -14 64 -14 19z"/>
<path d="M8631 9224 c0 -11 3 -14 6 -6 3 7 2 16 -1 19 -3 4 -6 -2 -5 -13z"/>
<path d="M8633 8975 c0 -22 2 -30 4 -17 2 12 2 30 0 40 -3 9 -5 -1 -4 -23z"/>
<path d="M8620 8910 c0 -5 5 -10 10 -10 6 0 10 5 10 10 0 6 -4 10 -10 10 -5 0
-10 -4 -10 -10z"/>
<path d="M8615 8880 c3 -5 11 -10 16 -10 6 0 7 5 4 10 -3 6 -11 10 -16 10 -6
0 -7 -4 -4 -10z"/>
<path d="M10700 8600 c0 -22 5 -40 10 -40 6 0 10 18 10 40 0 22 -4 40 -10 40
-5 0 -10 -18 -10 -40z"/>
<path d="M10560 8540 c0 -23 10 -26 28 -8 18 18 15 28 -8 28 -13 0 -20 -7 -20
-20z"/>
</g>
</svg>
